name C:\Users\u0101727\Documents\MyRepositories\upper-imu-dc\Results\main_tracking\Case_47\FLX03_linearAccelerations_bodyFrame.mot
datacolumns 4
datarows 58
range 5.38000000 5.95000000
endheader 
time	radius_imu_x	radius_imu_y	radius_imu_z	
          5.38000000	         -5.96780305	          0.21337824	          7.40917849	
          5.39000000	         -5.88296663	          0.35617590	          7.51321241	
          5.40000000	         -5.78052055	          0.49880780	          7.61530930	
          5.41000000	         -5.66109251	          0.64120184	          7.71601297	
          5.42000000	         -5.52558560	          0.78321413	          7.81640289	
          5.43000000	         -5.37516160	          0.92462793	          7.91789921	
          5.44000000	         -5.21129464	          1.06519046	          8.02196784	
          5.45000000	         -5.03587270	          1.20467017	          8.12977892	
          5.46000000	         -4.85130479	          1.34290514	          8.24186998	
          5.47000000	         -4.66059116	          1.47982243	          8.35787743	
          5.48000000	         -4.46732075	          1.61542563	          8.47641283	
          5.49000000	         -4.27556430	          1.74976347	          8.59513740	
          5.50000000	         -4.08963540	          1.88289959	          8.71103061	
          5.51000000	         -3.91369840	          2.01489893	          8.82079467	
          5.52000000	         -3.75126045	          2.14583715	          8.92129290	
          5.53000000	         -3.60471928	          2.27583298	          9.00988787	
          5.54000000	         -3.47518412	          2.40508823	          9.08456706	
          5.55000000	         -3.36263299	          2.53390025	          9.14386283	
          5.56000000	         -3.26626732	          2.66261781	          9.18672589	
          5.57000000	         -3.18486348	          2.79155125	          9.21255096	
          5.58000000	         -3.11699795	          2.92088479	          9.22143200	
          5.59000000	         -3.06115074	          3.05063153	          9.21453349	
          5.60000000	         -3.01579157	          3.18064142	          9.19432216	
          5.61000000	         -2.97954753	          3.31065528	          9.16440827	
          5.62000000	         -2.95143551	          3.44037388	          9.12892861	
          5.63000000	         -2.93104488	          3.56950383	          9.09167871	
          5.64000000	         -2.91856055	          3.69777119	          9.05535564	
          5.65000000	         -2.91458921	          3.82492149	          9.02119262	
          5.66000000	         -2.91983193	          3.95073870	          8.98904771	
          5.67000000	         -2.93470595	          4.07508215	          8.95783707	
          5.68000000	         -2.95900845	          4.19792149	          8.92612306	
          5.69000000	         -2.99171818	          4.31934396	          8.89267475	
          5.70000000	         -3.03101049	          4.43951451	          8.85685818	
          5.71000000	         -3.07447947	          4.55860367	          8.81877376	
          5.72000000	         -3.11947133	          4.67672054	          8.77914183	
          5.73000000	         -3.16343055	          4.79386648	          8.73901307	
          5.74000000	         -3.20412902	          4.90992821	          8.69939690	
          5.75000000	         -3.23973137	          5.02470368	          8.66091185	
          5.76000000	         -3.26873357	          5.13794478	          8.62358326	
          5.77000000	         -3.28984829	          5.24941256	          8.58686924	
          5.78000000	         -3.30193567	          5.35894047	          8.54989088	
          5.79000000	         -3.30406421	          5.46648868	          8.51174573	
          5.80000000	         -3.29572343	          5.57216383	          8.47175928	
          5.81000000	         -3.27711744	          5.67618760	          8.42958938	
          5.82000000	         -3.24940194	          5.77881980	          8.38519808	
          5.83000000	         -3.21473668	          5.88025967	          8.33875960	
          5.84000000	         -3.17609214	          5.98056128	          8.29055486	
          5.85000000	         -3.13683483	          6.07960034	          8.24086371	
          5.86000000	         -3.10018249	          6.17711600	          8.18985948	
          5.87000000	         -3.06869912	          6.27279590	          8.13754158	
          5.88000000	         -3.04400256	          6.36634907	          8.08375232	
          5.89000000	         -3.02677009	          6.45752112	          8.02829360	
          5.90000000	         -3.01696665	          6.54606540	          7.97110257	
          5.91000000	         -3.01411082	          6.63172338	          7.91240620	
          5.92000000	         -3.01741376	          6.71424538	          7.85278682	
          5.93000000	         -3.02574228	          6.79344958	          7.79313112	
          5.94000000	         -3.03749920	          6.86928343	          7.73448266	
          5.95000000	         -3.05052537	          6.94186243	          7.67783017	
